<?xml version="1.0" encoding="UTF-8"?> <svg xmlns="http://www.w3.org/2000/svg" xmlns:xlink="http://www.w3.org/1999/xlink" xmlns:xodm="http://www.corel.com/coreldraw/odm/2003" xml:space="preserve" width="10.7573in" height="1.823in" version="1.1" shape-rendering="geometricPrecision" text-rendering="geometricPrecision" image-rendering="optimizeQuality" fill-rule="evenodd" clip-rule="evenodd" viewBox="0 0 9942.46 1684.92"> <g id="Layer_x0020_1"> <metadata id="CorelCorpID_0Corel-Layer"></metadata> <path fill="#324F85" fill-rule="nonzero" d="M3224.39 507.12c-1.13,1.13 -13.34,2.89 -31,4.81 10.44,-1.44 20.72,-3.04 31,-4.81z"></path> <path fill="#ED3237" fill-rule="nonzero" d="M243.28 621.59c-0.09,-0.09 -0.09,-0.09 0,-0.16 -0.33,-2.34 -0.74,-4.66 -1.08,-7 0.41,2.34 0.75,4.66 1.17,7 -0.09,0.08 -0.09,0.08 -0.09,0.16z"></path> <path fill="#ED3237" fill-rule="nonzero" d="M243.78 624.83c-0.26,-1.08 -0.41,-2.08 -0.59,-3.08l0.09 0c0.17,1 0.33,2.08 0.5,3.08z"></path> <path fill="#ED3237" fill-rule="nonzero" d="M240.03 510.76c-0.24,3 -0.58,5.9 -0.83,8.91 0.17,-2.34 0.33,-4.66 0.59,-7 0.08,-0.67 0.17,-1.24 0.24,-1.91z"></path> <path fill="#ED3237" fill-rule="nonzero" d="M243.28 621.59c-0.09,-0.09 -0.09,-0.09 0,-0.16 -0.33,-2.34 -0.74,-4.66 -1.08,-7 0.41,2.34 0.75,4.66 1.17,7 -0.09,0.08 -0.09,0.08 -0.09,0.16z"></path> <path fill="#ED3237" fill-rule="nonzero" d="M243.78 624.83c-0.26,-1.08 -0.41,-2.08 -0.59,-3.08l0.09 0c0.17,1 0.33,2.08 0.5,3.08z"></path> <path fill="#ED3237" fill-rule="nonzero" d="M896.6 358.66c-0.41,-0.24 -0.91,-0.5 -1.34,-0.74l-0.33 -0.43 0.09 0c0.33,0.33 1,0.67 1.58,1.17z"></path> <path fill="#ED3237" fill-rule="nonzero" d="M898.18 359.74c-0.17,0 -0.17,0 -0.24,-0.08 -0.17,-0.09 -0.33,-0.25 -0.5,-0.42 0.24,0.17 0.58,0.33 0.75,0.5z"></path> <path fill="#282828" fill-rule="nonzero" d="M1404.64 576.7l0 11.9c0,3.08 -0.17,6.15 -0.26,9.32 -0.15,6.24 -0.65,12.48 -1.24,18.64l0.09 0.16c0,0.33 0,0.67 -0.16,1 -0.17,3 -0.43,5.83 -0.67,8.74l-0.09 0.08c-0.57,5.66 -1.24,11.23 -2.15,16.98 -0.17,1.24 -0.33,2.58 -0.58,3.73l0 0.17c-0.5,2.75 -1,5.49 -1.43,8.24 -0.08,0.43 -0.15,0.75 -0.15,1.08 -0.17,0.59 -0.17,1 -0.42,1.43 0.09,0.08 0.09,0.08 0.09,0.15l0 0.09c-0.25,1.41 -0.5,2.82 -0.76,4.24 -0.33,2 -0.91,3.92 -1.24,5.83 -3.75,17.47 -8.57,34.79 -14.56,51.67 -0.59,1.91 -1.26,3.82 -2.08,5.74 -8.07,22.39 -18.14,44.02 -30.13,64.83l-0.15 0.17c-0.67,1.16 -1.17,2.08 -1.92,3.23 -7.24,12.49 -15.39,24.54 -24.05,36.2 -0.83,1.24 -1.67,2.49 -2.75,3.57l-0.16 0.33c-19.14,25.3 -41.61,48.68 -66.98,69.49 -0.82,0.74 -1.66,1.41 -2.42,2.08 -3.07,2.49 -5.98,4.74 -9.06,7.15 -1.34,1 -2.66,1.91 -3.99,2.91 -0.84,0.58 -1.58,1.24 -2.42,1.75 -12.9,9.49 -26.21,18.14 -39.77,25.88 -1.41,0.74 -2.75,1.5 -4.08,2.25l0 0.08c0,0.09 0,0.09 -0.08,0.09 -1.74,0.91 -3.41,1.82 -5.16,2.75 -3.66,1.99 -7.33,3.9 -10.99,5.74 -3.08,1.58 -6.24,3.08 -9.4,4.49 -0.42,0.33 -0.76,0.5 -1.17,0.57 -3.49,1.67 -6.98,3.25 -10.56,4.75 -7.41,3.32 -14.89,6.24 -22.39,8.89 -2.32,0.92 -4.74,1.75 -7.07,2.58 -7.07,2.41 -14.14,4.66 -21.22,6.66 -0.58,0.24 -1.24,0.41 -1.82,0.58 -2.49,0.67 -4.99,1.41 -7.57,2 -0.41,0.16 -0.82,0.24 -1.34,0.33 -3.57,0.99 -7.06,1.82 -10.73,2.58 -3.57,0.82 -7.24,1.58 -10.81,2.33 -0.67,0.24 -1.42,0.33 -2.08,0.41 -1.91,0.42 -3.84,0.76 -5.83,1.17 -2.91,0.59 -5.83,1 -8.74,1.5 -1.34,0.24 -2.49,0.5 -3.83,0.57 -9.9,1.58 -19.96,2.58 -30.11,3.42 -1,0.08 -1.91,0.08 -3.08,0.17 -17.8,1.17 -35.78,1.33 -53.58,0.16 -3.66,-0.25 -7.33,-0.41 -10.9,-0.74l-0.09 0.08c-0.91,-0.17 -1.99,-0.24 -2.99,-0.33 -8.32,-0.83 -16.73,-1.75 -25.05,-3.16 -0.58,-0.09 -1.24,-0.16 -1.91,-0.33 -3.83,-0.5 -7.65,-1.25 -11.49,-1.91 -1.32,-0.26 -2.49,-0.5 -3.73,-0.83l-0.09 -0.08c-11.74,-2.17 -23.21,-5 -34.53,-8.24 -1.24,-0.33 -2.66,-0.84 -4.07,-1.17 -26.55,-7.99 -52.34,-18.64 -77.14,-31.86 -0.57,-0.33 -1.15,-0.67 -1.66,-0.92 -11.4,-6.15 -22.63,-12.89 -33.45,-20.22 -1.41,-0.91 -2.75,-1.91 -4.16,-2.83l-0.09 0c-35.11,-24.13 -66.97,-54.17 -94.18,-89.86 -14.89,-19.64 -27.78,-39.94 -38.77,-60.99 49.25,45.34 107.5,77.12 169.4,94.35 0.67,0.33 1.59,0.5 2.34,0.67 9.9,2.75 19.88,5.24 30.04,7.07 0.57,0.17 1.34,0.33 1.91,0.41 11.32,2.17 22.71,3.92 34.2,5.16 0.84,0 1.49,0 2.16,0.17 9.32,0.91 18.73,1.5 28.12,1.82l0.26 0 0.08 0c7.82,0.25 15.65,0.25 23.54,0.09 0.67,0 1.34,0 2.08,-0.09 19.47,-0.49 38.95,-2.41 58.42,-5.65 0.65,-0.17 1.32,-0.26 1.99,-0.43 22.13,-3.9 44.1,-9.65 65.65,-17.3l0 -0.08c1.17,-0.33 2,-0.59 2.91,-0.91l0.08 -0.09c7.24,-2.66 14.32,-5.4 21.48,-8.32 1.58,-0.67 3.23,-1.41 4.83,-2.17 0.74,-0.24 1.41,-0.58 2.08,-0.91 4.91,-2.17 9.82,-4.49 14.65,-6.91 4.81,-2.34 9.64,-4.83 14.39,-7.41 1,-0.5 1.91,-1.08 2.9,-1.67 17.65,-9.73 34.71,-20.88 51.09,-33.44 4.16,-3.16 8.24,-6.41 12.23,-9.82 0.5,-0.33 1,-0.67 1.41,-1.17 3.58,-2.82 7.07,-5.83 10.49,-8.98 6.83,-5.98 13.31,-12.15 19.64,-18.64 4.49,-4.48 8.89,-9.14 13.05,-13.89 2.5,-2.66 4.92,-5.33 7.07,-8.07l0 -0.08c3.25,-3.58 6.16,-7.16 8.99,-10.82 2.17,-2.49 4.16,-5.07 6.07,-7.74 3.17,-4.16 6.25,-8.39 9.24,-12.64 0.5,-0.67 1,-1.32 1.41,-2.08 2.58,-3.66 5.16,-7.4 7.65,-11.23 0.33,-0.75 0.83,-1.41 1.34,-2.16 2.15,-3.5 4.49,-7.16 6.65,-10.82 4.34,-7.4 8.58,-14.89 12.4,-22.54 0.92,-1.74 1.75,-3.5 2.5,-5.16 5.49,-10.82 10.23,-21.64 14.48,-32.88 0.67,-1.58 1.24,-2.99 1.82,-4.66 0.26,-0.5 0.5,-1.08 0.67,-1.58 0.5,-1.08 0.92,-2.25 1.17,-3.41 0.08,-0.24 0.24,-0.65 0.41,-0.99 0.26,-0.59 0.5,-1.34 0.76,-2.08 4.83,-13.57 8.98,-27.45 12.31,-41.6 0.91,-3.92 1.82,-7.82 2.58,-11.64 0.74,-3.75 1.49,-7.4 2.25,-11.24 0.5,-2.66 0.99,-5.48 1.41,-8.32 0.58,-3.49 1.08,-7.07 1.58,-10.65 0.17,-0.65 0.24,-1.41 0.33,-2.16 0.17,-1.91 0.5,-3.66 0.58,-5.57 0.09,-0.76 0.25,-1.5 0.33,-2.25 0.09,-0.5 0.09,-0.92 0.09,-1.34 0.41,-3.9 0.83,-7.82 1.08,-11.81 0.5,-4.66 0.58,-9.41 0.84,-14.31 0.33,-3.75 0.41,-7.41 0.41,-11.23 0.16,-3.5 0.16,-7 0.09,-10.73 0,-2.58 0,-5.33 -0.09,-7.82 -0.24,-6.74 -0.58,-13.49 -1.25,-20.23 -0.16,-3.49 -0.5,-7.07 -0.91,-10.57 0,-0.67 -0.09,-1.41 -0.09,-2.15 -0.5,-4.75 -1.08,-9.65 -1.91,-14.57 -0.24,-2.16 -0.58,-4.33 -0.91,-6.56 -0.17,-0.92 -0.33,-1.92 -0.59,-3.01 -0.24,-1.66 -0.49,-3.32 -0.75,-5.07 -0.24,-1.17 -0.5,-2.41 -0.67,-3.58l-0.08 -0.09c-1.67,-8.98 -3.66,-18.05 -6,-26.87 -0.67,-2.67 -1.32,-5.16 -1.99,-7.74 -1.91,-6.65 -3.82,-13.14 -6.16,-19.72 -0.5,-2.08 -1.34,-3.99 -2.08,-5.9 0,-0.33 -0.08,-0.5 -0.25,-0.84 -0.83,-2.34 -1.67,-4.66 -2.5,-6.99 -0.91,-2.33 -1.75,-4.66 -2.66,-6.91 -0.59,-1.75 -1.41,-3.66 -2.17,-5.32 -1,-2.5 -1.91,-4.83 -2.91,-7.24 -0.99,-2 -1.91,-4.08 -2.75,-6.07 -1.24,-2.91 -2.66,-5.66 -3.99,-8.65 -1.99,-4 -3.99,-8.07 -6.15,-12.16 17.47,16.06 33.78,33.95 48.83,53.41 1.5,1.91 2.91,4.01 4.42,6.09 1.5,1.91 2.99,3.99 4.33,5.98 2.99,3.99 5.83,8.07 8.57,12.32 1.82,2.74 3.66,5.65 5.24,8.32 2.17,3.33 4.08,6.48 6,9.81 1.41,2.42 2.66,4.75 4.16,7.07 3.08,5.49 5.91,10.99 8.65,16.39 1.41,2.91 2.75,5.59 4.07,8.5 1.08,2.23 2.25,4.65 3.25,6.98 0.75,1.58 1.5,3.16 2.17,4.83 1.32,2.91 2.49,5.81 3.73,8.73 1.84,4.49 3.58,9.08 5.25,13.65 0.75,1.92 1.41,3.84 2.08,5.75 0.41,1 0.74,1.99 1.08,2.99 1,3.08 2.08,6.16 3.08,9.15 4.07,12.89 7.57,26.05 10.32,39.27 0.49,2.5 1.15,5.16 1.58,7.74 0.67,3.32 1.24,6.5 1.82,9.89 1.17,7.33 2.34,14.82 3.17,22.3 0.15,2.17 0.33,4.34 0.49,6.5 0.33,3.16 0.59,6.24 0.83,9.41 0.09,0.58 0.17,1.16 0.09,1.75 0.33,2.66 0.5,5.24 0.67,7.82 0.24,5.33 0.41,10.73 0.41,15.89z"></path> <path fill="#ED3237" fill-rule="nonzero" d="M1094.3 1135.1c-0.17,0.24 -0.35,0.37 -0.59,0.48 -0.4,0.33 -0.86,0.63 -1.34,0.92 0.33,-0.22 0.65,-0.44 0.91,-0.7 0.28,-0.15 0.51,-0.35 0.73,-0.55 0.11,-0.01 0.24,-0.09 0.28,-0.16z"></path> <path fill="#ED3237" fill-rule="nonzero" d="M1278.19 957.85l-0.75 0.92c-8.82,9.64 -18.3,18.55 -28.22,26.78 -1.75,1.26 -3.4,2.67 -5.16,4.08 -12.81,9.98 -26.53,18.9 -40.76,26.21 -4.99,2.75 -10.08,5.16 -15.15,7.41 -1,0.5 -2,0.91 -3,1.24 -4.74,2.16 -9.64,4.07 -14.56,6l-0.41 0.08 -0.09 0.08c-12.64,6.08 -25.62,11.49 -38.77,16.15 -8.24,2.99 -16.47,5.66 -24.88,7.98 -6.99,2.08 -13.98,3.92 -21.05,5.66 -2.67,0.58 -5.41,1.17 -7.99,1.83 -0.09,-0.09 -0.09,0 -0.17,0 -1.74,0.41 -3.58,0.67 -5.25,1.08 -0.49,0.17 -0.75,0.24 -1.16,0.33l-0.09 0 -1.24 0.17 -0.08 0 -0.17 0c-0.17,0.08 -0.33,0.08 -0.5,0.08 -1.08,0.33 -2.08,0.43 -3.16,0.67 -3.58,0.59 -7.07,1.24 -10.58,1.75 -3.49,0.59 -7.07,1.09 -10.64,1.59 -33.04,4.4 -66.57,4.98 -99.85,1.41 -1.26,-0.09 -2.41,-0.25 -3.75,-0.42 -9.82,-1.17 -19.64,-2.58 -29.37,-4.49 -11.07,-1.99 -22.13,-4.57 -33.03,-7.57 -1,-0.24 -2.17,-0.5 -3.17,-0.82 -0.99,-0.26 -1.99,-0.67 -3.16,-0.92 -0.67,-0.24 -1.24,-0.41 -1.91,-0.58 -40.27,-11.99 -79.37,-30.37 -116.07,-55.42 -25.96,-17.73 -49.25,-37.93 -69.81,-60.08 -1.34,-1.41 -2.58,-2.82 -3.92,-4.24 -109.74,-121.4 -138.53,-298.79 -70.89,-449.4 -6.74,6.83 -13.22,13.98 -19.47,21.31 -6.24,7.41 -12.15,15.06 -17.97,22.88 -1.58,2.08 -3.16,4.33 -4.57,6.5 -1.08,1.49 -2.25,2.99 -3.25,4.66 -45.34,66.98 -68.73,142.7 -71.31,218.16 -2.08,60.99 9.24,121.81 33.12,177.97 0.83,2.08 1.75,4.07 2.66,6.15 11.08,24.88 24.63,48.93 40.61,71.56 0.42,0.67 0.92,1.24 1.42,1.82 27.2,38.11 61.4,72.14 102.09,100.27l3.32 2.25c1.08,0.75 2.16,1.58 3.25,2.16 7.82,4.99 15.47,9.82 23.47,14.31 1.32,0.83 2.73,1.66 4.16,2.41 0.74,0.41 1.58,0.84 2.32,1.34 5.33,2.82 10.57,5.57 15.73,8.15 1.58,0.67 2.99,1.41 4.57,2.16 53.5,25.64 110.59,38.86 167.59,40.44 14.97,0.42 30.02,0 44.93,-1.16l0.41 0c18.39,-1.5 36.69,-4.17 54.67,-8.07l0 -0.17c3.32,-0.74 6.65,-1.41 9.97,-2.25l0.09 -0.08c11.4,-2.75 22.71,-6 33.77,-9.65l6 -2.17c1.5,-0.5 2.82,-1.08 4.32,-1.49l0.09 0c5.81,-2 11.64,-4.17 17.31,-6.42 0.74,-0.24 1.41,-0.49 2.08,-0.82 24.95,-9.91 48.35,-22.05 70.22,-36.61 38.02,-24.97 71.64,-57.25 101.59,-97.93 3,-3.99 5.83,-8.07 8.65,-12.14 5.16,-7.5 9.91,-14.98 14.31,-22.64 0.17,-0.08 0.26,-0.17 0.26,-0.33 2.15,-3.74 4.33,-7.73 6.4,-11.55 3.08,-5.75 5.98,-11.07 8.32,-15.65 2.08,-4.33 4.16,-8.49 6.07,-12.81 -2.66,3.49 -5.57,6.74 -8.49,9.9z"></path> <polygon fill="#ED3237" fill-rule="nonzero" points="1180.29,1049.93 1180.21,1049.93 1180.12,1049.84 1180.29,1049.84 "></polygon> <path fill="#ED3237" fill-rule="nonzero" d="M1180.6 1049.44l-0.32 0.48 -0.08 -0.05c0.18,-0.11 0.29,-0.27 0.4,-0.43z"></path> <path fill="#ED3237" fill-rule="nonzero" d="M1093.71 1135.57c-0.41,0.33 -0.87,0.63 -1.34,0.92 0.32,-0.21 0.64,-0.43 0.91,-0.69 0.14,-0.08 0.28,-0.15 0.43,-0.23z"></path> <path fill="#ED3237" fill-rule="nonzero" d="M1094.3 1135.1c-0.17,0.24 -0.35,0.37 -0.59,0.48 0.14,-0.08 0.23,-0.19 0.31,-0.32 0.11,-0.01 0.24,-0.09 0.28,-0.16z"></path> <path fill="#ED3237" fill-rule="nonzero" d="M1180.6 1049.44l-0.32 0.48 -0.08 -0.05c0.18,-0.11 0.29,-0.27 0.4,-0.43z"></path> <path fill="#ED3237" fill-rule="nonzero" d="M440.5 1060.84c-5.51,-3.3 -11.13,-6.84 -16.63,-10.52l31.78 21.76c-5.25,-3.54 -10.14,-7.33 -15.16,-11.24zm0 0c-5.51,-3.3 -11.13,-6.84 -16.63,-10.52l31.78 21.76c-5.25,-3.54 -10.14,-7.33 -15.16,-11.24zm0 0c-5.51,-3.3 -11.13,-6.84 -16.63,-10.52l31.78 21.76c-5.25,-3.54 -10.14,-7.33 -15.16,-11.24zm0 0c-5.51,-3.3 -11.13,-6.84 -16.63,-10.52l31.78 21.76c-5.25,-3.54 -10.14,-7.33 -15.16,-11.24zm0 0c-5.51,-3.3 -11.13,-6.84 -16.63,-10.52l31.78 21.76c-5.25,-3.54 -10.14,-7.33 -15.16,-11.24z"></path> <path fill="#373435" fill-rule="nonzero" d="M887.28 384.92c-37.55,-4.28 -74.83,-3.54 -111.03,2.19 -0.6,0 -1.22,0.13 -1.83,0.24 -0.85,0 -1.71,0.13 -2.69,0.37 -9.54,1.59 -19.2,3.54 -28.61,5.87 -4.65,1.1 -9.18,2.32 -13.81,3.56 -49.65,13.69 -96.35,36.68 -137.56,67.24 -0.98,0.61 -1.96,1.35 -2.94,2.19 -3.92,2.82 -7.82,5.88 -11.49,9.06 -0.49,0.24 -0.86,0.49 -1.23,0.85 -1.71,1.48 -3.66,3.06 -5.38,4.65 -0.98,0.73 -2.08,1.59 -2.93,2.57 -1.1,0.86 -2.21,1.83 -3.18,2.7 -9.41,8.56 -18.83,17.35 -27.63,26.78 -5.88,6.24 -11.5,12.59 -17.01,19.07l-0.24 0.24c-5.25,6.47 -10.51,13.2 -15.65,20.05 -9.17,12.48 -17.73,25.68 -25.56,39.24 -0.73,1.59 -1.58,2.94 -2.33,4.4 -3.9,6.61 -7.2,13.34 -10.63,20.31 -1.59,3.17 -3.18,6.35 -4.4,9.65 -2.32,4.89 -4.4,9.91 -6.61,14.92 -0.85,2.21 -1.58,4.16 -2.44,6.24 -0.98,2.33 -1.95,4.65 -2.7,7.09 -3.05,8.45 -5.98,16.88 -8.43,25.8 -3.66,12.23 -6.71,24.45 -9.28,36.8 -14.31,71.9 -9.06,143.8 12.47,209.7 0.73,2.33 1.46,4.65 2.32,6.97 7.33,21.4 16.51,42.3 27.27,62.23l0.12 0.13c0.25,0.6 0.5,1.09 0.86,1.71 0.13,0.12 0.24,0.24 0.37,0.49l0.12 0c0.73,1.59 1.59,2.94 2.21,4.4 1.71,2.93 4.65,7.95 6.35,10.87 1.35,2.33 2.69,4.53 4.16,6.74 2.44,4.03 5.01,7.82 7.58,11.74 3.67,5.51 7.46,10.76 11.37,16.13 3.67,5.02 7.46,10.02 11.5,14.8 1.22,1.59 2.57,3.18 3.79,4.89 0.73,0.73 1.46,1.71 2.32,2.57 0.36,0.36 0.6,0.86 0.98,1.11 2.81,3.41 5.75,6.6 8.69,9.9 0.36,0.49 0.85,0.98 1.46,1.59 0.49,0.6 1.09,1.22 1.71,1.84 0.73,0.84 1.59,1.82 2.45,2.81 0.73,0.62 1.46,1.35 2.32,2.19 0.49,0.75 1.22,1.35 1.82,1.95 0.49,0.5 0.99,0.99 1.48,1.47 1.84,1.84 3.54,3.79 5.51,5.51 0.84,0.98 1.95,1.82 2.93,3.05 2.81,2.44 5.49,5.01 8.43,7.7 0.98,0.98 2.08,1.95 3.18,3.06l-0.25 0c-0.61,-0.24 -1.22,-0.24 -1.83,-0.49 -0.99,-0.24 -2.08,-0.37 -3.06,-0.73 -35.83,-8.07 -70.68,-20.91 -104.06,-38.88 -0.12,-0.13 -0.24,-0.24 -0.37,-0.24 -0.12,0 -0.24,0 -0.24,-0.13 -5.25,-3.54 -10.14,-7.34 -15.16,-11.25 -5.51,-3.3 -11.13,-6.86 -16.63,-10.51 -0.13,-0.13 -0.24,-0.24 -0.37,-0.24 -0.12,0 -0.12,0 -0.24,-0.13 -0.12,0 -0.12,-0.12 -0.12,-0.12 -50.14,-43.17 -88.05,-96.36 -112.5,-154.56 -0.12,-0.13 -0.12,-0.24 -0.24,-0.37l-10.4 -34.11 -2.57 -9.42c-1.34,-4.39 -2.57,-8.92 -3.78,-13.45 -0.13,-0.36 -0.25,-0.73 -0.25,-1.09 -12.47,-63.58 -10.14,-131.21 9.42,-197.71 14.43,-48.68 36.92,-92.57 65.66,-130.96 0.98,-1.22 1.95,-2.57 2.93,-3.92 59.79,-78.01 145.39,-132.17 240.51,-153.19 18.21,-3.93 36.56,-6.74 55.15,-8.32 2.08,-0.13 3.92,-0.37 5.99,-0.49 48.05,-3.56 97.82,1.71 147.09,16.25 5.26,1.59 10.52,3.31 15.66,5.02 1.59,0.49 3.05,0.98 4.52,1.59 11.01,3.78 21.53,8.19 31.91,12.71 1.59,0.62 3.18,1.35 4.53,2.08 3.54,1.72 7.08,3.18 10.51,5.02z"></path> <path fill="#ED3237" fill-rule="nonzero" d="M243.2 621.75l0.09 0c0.17,1 0.33,2.08 0.5,3.08 -0.26,-1.09 -0.42,-2.08 -0.59,-3.08zm0.17 -0.33c-0.08,0.08 -0.08,0.08 -0.08,0.16 -0.09,-0.09 -0.09,-0.09 0,-0.16 -0.33,-2.34 -0.76,-4.66 -1.09,-7 0.42,2.34 0.76,4.66 1.17,7zm-4.16 -101.76c0.16,-2.34 0.33,-4.66 0.57,-7 0.09,-0.65 0.17,-1.24 0.26,-1.91 -0.26,3 -0.58,5.9 -0.83,8.91zm830.55 837.94c-0.09,-0.08 -0.17,-0.15 -0.26,-0.08l-0.08 -0.08c-326.07,-73.35 -396.67,-163.2 -587.34,-265.02 -247.46,-132.13 -324.88,-501.05 -115.46,-691l1.89 -2.08c134.7,-136.71 372.17,-154.68 526.34,-41.86l0.17 0c0.33,0.33 1,0.67 1.58,1.17 0.25,0.17 0.59,0.33 0.83,0.58 0.25,0.17 0.59,0.33 0.76,0.5 -0.17,0 -0.17,0 -0.26,-0.08 81.62,57.9 140.12,143.44 163.67,241.95 1.32,5.25 2.49,10.58 3.49,15.81 9.4,-61.32 4.33,-125.3 -13.4,-184.47l-0.08 0c-22.05,-72.39 -64.66,-138.28 -120.66,-188.12l-0.08 0c-22.22,-20.13 -46.76,-37.52 -72.8,-52.17 0,-0.17 -0.09,-0.24 -0.25,-0.17 -42.76,-24.62 -90.36,-40.68 -139.04,-48.59 -120.47,-19.38 -247.94,17.14 -339.3,98.01 12.84,-11.59 43.11,-36.85 81.6,-64.17 258.78,-183.62 625.74,-19.98 649.36,296.44 7.12,95.65 -18.99,194.29 -88.29,277.95l0 0.08c-33.86,42.77 -74.88,78.46 -123.14,105.42 18.81,-3.16 37.69,-7.73 56.17,-13.39 0.08,0.08 0.08,0.08 0.08,0 8.41,-2.42 16.8,-5.83 25.04,-8.58l0 -0.17c107,-40.77 193.7,-126.21 236.3,-232.05l-0.09 -0.08c10.41,-25.39 18.14,-51.76 23.3,-78.64l-0.08 0c38.52,-177.54 -64.48,-379.57 -229.32,-453.04 -30.28,-12.32 -57.07,-25.38 -86.77,-33.7l0.16 0c-8.48,-2.5 -159.25,-44.86 -345.37,-37.04l1.32 0.17c-195.53,-1.58 -393.89,27.21 -579.75,77.97l0 1597.77 368.51 0 0 -401.21c172.22,191.95 615.21,440.9 1010.51,405.95l0 -300.78c-113.49,4.66 -217.66,-3.92 -309.27,-23.22z"></path> <path fill="#ED3237" fill-rule="nonzero" d="M1599.67 1104.58c0,-67.12 23.63,-124.13 70.88,-171.38 46.88,-47.25 104.25,-70.88 171.38,-70.88l639.01 0c67.12,0 124.13,23.63 171.38,70.88 46.88,47.25 70.5,104.25 70.5,171.38l0 331.88c0,67.12 -23.62,124.5 -70.5,171.38 -47.25,47.25 -104.26,70.88 -171.38,70.88l-639.01 0c-67.12,0 -124.5,-23.63 -171.38,-70.88 -47.25,-46.88 -70.88,-104.25 -70.88,-171.38l0 -331.88zm947.27 318.76l0 -305.63c0,-28.87 -10.12,-53.63 -30.37,-73.87 -20.25,-20.25 -45,-30.38 -74.25,-30.38l-562.14 0c-28.12,0 -52.88,10.13 -73.5,30.38 -20.62,20.25 -31.13,45 -31.13,73.87l0 305.63c0,28.12 10.5,52.88 31.13,73.5 20.62,20.62 45.38,31.13 73.5,31.13l562.14 0c29.25,0 54,-10.5 74.25,-31.13 20.25,-20.62 30.37,-45.38 30.37,-73.5zm259.13 -409.89c-5.25,0 -9.38,-1.5 -12.38,-4.87 -3.38,-3 -4.88,-7.13 -4.88,-12.38l0 -117.76c0,-4.5 1.5,-8.25 4.88,-11.62 3,-3 7.12,-4.5 12.38,-4.5l1088.65 0c3.37,0 6.75,0.75 9.37,1.87 2.63,1.5 4.88,3.38 6,6 1.12,2.63 1.87,5.63 1.87,8.25l0 117.76c0,5.25 -1.5,9.37 -4.5,12.38 -3.38,3.37 -7.5,4.87 -12.75,4.87l-456.39 0 0 648.01c0,5.25 -1.5,9.38 -4.5,12.38 -3.38,3.38 -7.5,4.88 -12.75,4.88l-141.38 0c-5.25,0 -9.38,-1.5 -12.38,-4.88 -3.38,-3 -4.88,-7.12 -4.88,-12.38l0 -648.01 -456.38 0zm1171.9 91.13c0,-67.12 23.63,-124.13 70.88,-171.38 46.88,-47.25 104.25,-70.88 171.38,-70.88l639.01 0c67.12,0 124.13,23.63 171.38,70.88 46.88,47.25 70.5,104.25 70.5,171.38l0 331.88c0,67.12 -23.62,124.5 -70.5,171.38 -47.25,47.25 -104.26,70.88 -171.38,70.88l-639.01 0c-67.12,0 -124.5,-23.63 -171.38,-70.88 -47.25,-46.88 -70.88,-104.25 -70.88,-171.38l0 -331.88zm947.27 318.76l0 -305.63c0,-28.87 -10.12,-53.63 -30.37,-73.87 -20.25,-20.25 -45,-30.38 -74.25,-30.38l-562.14 0c-28.12,0 -52.88,10.13 -73.5,30.38 -20.62,20.25 -31.13,45 -31.13,73.87l0 305.63c0,28.12 10.5,52.88 31.13,73.5 20.62,20.62 45.38,31.13 73.5,31.13l562.14 0c29.25,0 54,-10.5 74.25,-31.13 20.25,-20.62 30.37,-45.38 30.37,-73.5zm241.88 -544.89c0,-4.5 1.5,-8.25 4.88,-11.62 3,-3 7.12,-4.5 12.38,-4.5l864.02 0c67.12,0 124.13,23.63 171.38,70.88 46.88,47.25 70.5,104.25 70.5,171.38 0,63.38 -22.12,118.5 -66,165.38 43.88,46.88 66,102.38 66,166.5 0,67.12 -23.62,124.5 -70.5,171.38 -47.25,47.25 -104.26,70.88 -171.38,70.88l-864.02 0c-5.25,0 -9.38,-1.5 -12.38,-4.88 -3.38,-3 -4.88,-7.12 -4.88,-12.38l0 -783.02zm367.88 466.89l-78 0c-4.5,0 -8.63,-1.5 -12,-4.88 -3.38,-3 -5.25,-6.75 -5.25,-10.88l0 -117.75c0,-3.38 0.75,-6.38 2.62,-8.62 1.88,-2.25 3.75,-4.13 6,-6 1.88,-1.88 4.88,-2.63 8.63,-2.63l78 0 37.13 0 469.51 0c20.25,0 37.5,-7.12 51.75,-21.37 13.87,-13.87 21,-31.13 21,-51.38l0 -35.62c0,-20.63 -7.12,-37.88 -21,-51.75 -14.25,-13.88 -31.5,-21 -51.75,-21l-698.64 0 0 514.51 698.64 0c13.13,0 25.5,-3.38 36.38,-10.13 10.87,-6.38 19.88,-15.37 26.63,-27 6.38,-11.63 9.75,-23.25 9.75,-35.63l0 -35.62c0,-20.62 -7.12,-37.88 -21,-52.5 -14.25,-14.62 -31.5,-21.75 -51.75,-21.75l-469.51 0 -37.13 0zm1678.53 45l-22.5 -38.25 -180 -310.88c-10.5,-18.38 -26.25,-27.75 -46.88,-27.75 -20.62,0 -36.38,9.38 -46.88,27.75l-363.76 629.64c-3.37,5.25 -8.25,7.87 -14.62,7.87l-165.38 0c-6.38,0 -10.88,-3 -13.87,-8.62 -3.38,-5.63 -3.38,-11.25 -0.75,-16.5l418.13 -723.77c26.63,-45 65.63,-67.5 117.75,-67.5l138.75 0c52.13,0 91.13,22.5 117.75,67.5l416.63 723.77c3.75,5.25 4.13,10.88 1.12,16.5 -3.37,5.63 -8.25,8.62 -15.37,8.62l-164.25 0c-6,0 -10.88,-2.62 -14.63,-7.87l-55.5 -97.88 -18.38 -31.88 -533.26 0c-6.38,0 -10.88,-2.63 -13.88,-7.87 -3,-5.25 -3.37,-10.88 -0.75,-17.25l69 -117.75c2.62,-5.25 7.5,-7.88 14.62,-7.88l376.88 0zm771.01 -195.75l287.26 0 267 -327c3.75,-3.38 8.25,-5.25 13.5,-5.25l183.76 0c7.12,0 12,3 15.37,9.37 3,6.38 2.25,12 -2.25,17.25l-310.88 381.01 310.88 381.01c4.5,5.25 5.25,11.25 2.25,17.62 -3.38,6.75 -8.25,10.13 -15.37,10.13l-183.76 0c-5.25,0 -9.75,-2.25 -13.5,-6.75l-267 -326.63 -287.26 0 -13.13 0 -43.5 0c-4.5,0 -8.63,-1.5 -12,-4.88 -3.38,-3 -5.25,-6.75 -5.25,-10.88l0 -117.75c0,-2.62 0.37,-4.88 1.5,-6.75 0.75,-1.87 1.88,-3.38 3.75,-5.25 1.87,-1.87 3.37,-3 5.25,-4.13 1.87,-0.75 4.12,-1.12 6.75,-1.12l43.5 0 13.13 0zm-346.5 -316.13c0,-4.5 1.5,-8.25 4.88,-11.62 3,-3 7.12,-4.5 12.38,-4.5l141.37 0c3.38,0 6.75,0.75 9.38,1.87 2.62,1.5 4.88,3.38 6,6 1.12,2.63 1.87,5.63 1.87,8.25l0 783.02c0,5.25 -1.5,9.38 -4.5,12.38 -3,3.38 -7.12,4.88 -12.75,4.88l-141.37 0c-5.25,0 -9.38,-1.5 -12.38,-4.88 -3.38,-3 -4.88,-7.12 -4.88,-12.38l0 -783.02zm1616.65 316.13l-30.37 0 -41.25 0 -2.62 0 -71.25 0c-3.75,0 -6.75,0.75 -8.63,2.63 -2.25,1.87 -4.12,3.75 -6,6 -1.87,2.25 -2.62,5.25 -2.62,8.62l0 117.75c0,4.13 1.87,7.87 5.25,10.88 3.37,3.37 7.5,4.88 12,4.88l71.25 0 2.62 0 41.25 0 30.37 0 58.13 0 612.39 0c5.25,0 9.37,-1.5 12.75,-4.88 3,-3 4.5,-6.75 4.5,-10.88l0 -117.75c0,-4.5 -1.5,-8.62 -4.5,-12 -3.38,-3.37 -7.5,-5.25 -12.75,-5.25l-612.39 0 -58.13 0zm670.51 333.38c5.25,0 9.37,1.5 12.75,4.5 3,3.38 4.5,7.13 4.5,11.25l0 117.75c0,5.25 -1.5,9.38 -4.5,12.38 -3.38,3.38 -7.5,4.88 -12.75,4.88l-863.64 0c-67.12,0 -124.5,-23.63 -171.38,-70.88 -47.25,-46.88 -70.88,-104.25 -70.88,-171.38l0 -331.88c0,-67.12 23.63,-124.13 70.88,-171.38 46.88,-47.25 104.25,-70.88 171.38,-70.88l863.64 0c5.25,0 9.37,1.5 12.75,4.5 3,3.37 4.5,7.12 4.5,11.62l0 117.76c0,4.12 -1.5,8.25 -4.5,11.62 -3.38,3.75 -7.5,5.63 -12.75,5.63l-825.39 0c-14.25,0 -27.75,2.63 -40.5,7.88 -12.75,5.25 -23.63,12.75 -33,22.12 -9.37,9.75 -16.88,21 -22.5,33.75 -5.62,13.13 -8.62,26.63 -8.62,40.5l0 305.63c0,28.12 10.5,52.88 31.13,73.5 20.62,20.62 45.38,31.13 73.5,31.13l825.39 0z"></path> </g> </svg> 